<?xml version="1.0" standalone="no"?>
<!DOCTYPE svg PUBLIC "-//W3C//DTD SVG 20010904//EN"
 "http://www.w3.org/TR/2001/REC-SVG-20010904/DTD/svg10.dtd">
<svg version="1.0" xmlns="http://www.w3.org/2000/svg"
 width="700.000000pt" height="700.000000pt" viewBox="0 0 700.000000 700.000000"
 preserveAspectRatio="xMidYMid meet">
<metadata>
Created by potrace 1.14, written by Peter Selinger 2001-2017
</metadata>
<g transform="translate(0.000000,700.000000) scale(0.100000,-0.100000)"
fill="#000000" stroke="none">
<path d="M3059 5676 c-2 -2 -49 -7 -104 -11 -55 -4 -102 -8 -105 -10 -3 -2
-41 -6 -85 -10 -43 -3 -82 -8 -85 -10 -3 -1 -30 -6 -60 -10 -200 -25 -437 -77
-611 -135 -64 -21 -125 -43 -135 -48 -11 -6 -37 -18 -59 -27 -81 -35 -195
-120 -287 -214 -134 -137 -180 -204 -326 -476 l-70 -130 -132 -2 c-157 -2
-214 -14 -264 -55 -52 -43 -69 -82 -70 -159 -1 -55 4 -75 32 -128 42 -80 39
-85 -94 -168 -175 -108 -241 -197 -288 -383 -21 -85 -27 -118 -42 -225 -2 -16
-6 -43 -8 -60 -3 -16 -8 -58 -11 -93 -4 -35 -8 -71 -10 -81 -25 -132 -26 -743
0 -931 1 -14 6 -50 9 -80 9 -81 34 -222 57 -330 48 -219 87 -298 172 -347 52
-29 57 -35 78 -93 15 -38 70 -105 102 -122 33 -17 148 -23 482 -23 450 1 485
5 541 67 27 29 65 99 59 108 -11 18 38 39 125 54 114 19 141 24 200 37 87 20
109 24 180 34 25 3 52 8 60 10 8 2 47 6 85 10 39 3 88 8 110 10 98 11 136 15
235 21 58 3 125 8 150 10 288 22 973 22 1240 -1 25 -2 90 -6 145 -10 157 -11
226 -17 335 -30 19 -2 58 -7 85 -10 65 -7 158 -23 215 -35 77 -18 92 -21 205
-41 61 -11 115 -21 121 -23 6 -2 17 -25 24 -51 9 -34 28 -63 66 -100 52 -53
53 -53 121 -57 103 -5 815 0 838 5 11 3 26 6 32 6 7 1 31 18 54 38 40 37 71
86 82 133 5 18 22 33 61 52 63 31 95 72 126 163 18 53 53 191 66 265 3 14 14
72 24 130 11 58 22 137 26 175 3 39 7 81 10 95 5 31 5 601 -1 690 -20 330 -48
528 -95 687 -20 64 -54 138 -74 158 -6 6 -25 27 -42 47 -37 42 -120 104 -191
143 -29 15 -62 38 -74 51 l-21 23 33 68 c57 115 45 218 -32 287 -48 44 -113
58 -277 60 l-124 1 -65 125 c-207 395 -395 600 -653 711 -162 70 -391 135
-570 163 -19 3 -46 8 -60 11 -14 3 -43 7 -65 10 -22 3 -51 7 -65 10 -14 2 -50
7 -80 11 -30 4 -62 8 -70 9 -8 1 -51 5 -95 9 -44 4 -91 10 -105 13 -30 6 -975
15 -981 9z m861 -440 c25 -2 79 -7 120 -11 41 -3 86 -7 100 -10 14 -2 56 -7
95 -10 38 -4 72 -8 75 -10 3 -2 33 -6 67 -10 33 -3 75 -10 92 -15 17 -5 34 -9
36 -9 5 1 74 -10 105 -16 119 -23 328 -93 414 -138 101 -53 225 -191 309 -342
63 -112 137 -274 142 -311 9 -52 -7 -89 -45 -109 -27 -14 -63 -15 -273 -10
-133 3 -278 8 -322 9 -615 28 -1889 28 -2645 1 -464 -17 -587 -17 -618 -1 -59
31 -66 77 -26 176 64 159 179 357 260 448 108 122 256 197 509 256 39 9 88 21
110 26 43 11 262 46 335 54 194 22 214 24 350 31 63 4 117 8 118 10 6 5 641
-3 692 -9z m-2885 -1535 c391 -87 715 -234 715 -324 0 -38 -27 -50 -140 -63
-119 -13 -155 -15 -435 -20 -322 -5 -354 -1 -433 56 -57 41 -72 76 -76 170 -5
104 8 163 38 180 62 32 188 33 331 1z m5257 10 c36 -13 45 -51 42 -172 -2
-109 -15 -143 -68 -184 -19 -15 -58 -35 -87 -46 -50 -19 -70 -20 -363 -15
-171 2 -322 7 -336 10 -14 2 -54 7 -90 11 -117 11 -140 21 -140 63 0 77 238
197 570 286 223 60 393 77 472 47z m-2392 -886 c63 -5 203 -18 210 -20 3 0 32
-4 65 -9 33 -4 98 -14 145 -23 47 -8 96 -17 110 -20 168 -30 350 -83 448 -131
112 -55 168 -140 143 -221 -22 -74 -127 -159 -223 -180 -90 -21 -243 -23
-1383 -25 l-1150 -2 -71 28 c-132 54 -224 150 -224 236 0 89 221 222 429 258
14 3 42 9 61 14 32 8 49 12 133 25 15 3 39 7 55 10 50 8 236 34 295 40 32 4
66 8 75 10 9 1 46 6 82 10 36 4 67 9 69 11 5 5 652 -4 731 -11z"/>
</g>
</svg>
