<!-- Generated by IcoMoon.io -->
<svg version="1.1" xmlns="http://www.w3.org/2000/svg" width="48" height="32" viewBox="0 0 48 32">
<title>car-logo</title>
<path fill="#3470ff" d="M20.759 0.1c-4.357 0.33-7.834 1.119-9.672 2.208-0.859 0.5-2.038 1.669-2.688 2.638-0.25 0.39-0.739 1.229-1.079 1.879l-0.62 1.169h-1.089c-1.249 0-1.699 0.15-2.108 0.719-0.34 0.49-0.33 1.319 0.040 1.829 0.35 0.5 0.29 0.6-0.689 1.169-1.759 1.029-2.148 1.878-2.578 5.676-0.45 3.977-0.24 7.744 0.61 11.081 0.27 1.069 0.56 1.509 1.129 1.769 0.31 0.14 0.41 0.24 0.46 0.5 0.070 0.42 0.5 0.929 0.919 1.099 0.47 0.2 6.385 0.2 6.855 0 0.42-0.17 0.849-0.68 0.919-1.089 0.060-0.32 0.070-0.33 0.829-0.44 0.42-0.060 1.269-0.23 1.869-0.37 1.689-0.4 6.565-0.759 10.182-0.759 3.657 0 8.493 0.36 10.202 0.759 0.609 0.14 1.419 0.31 1.799 0.36l0.709 0.11 0.14 0.45c0.1 0.3 0.28 0.56 0.53 0.759l0.39 0.31 3.157 0.030c2.058 0.020 3.297-0.010 3.537-0.080 0.45-0.13 0.949-0.679 1.039-1.139 0.050-0.27 0.13-0.37 0.37-0.46 0.749-0.26 1.029-0.809 1.449-2.848 0.5-2.398 0.57-3.178 0.559-5.945-0.010-3.627-0.38-6.675-0.979-8.024-0.28-0.63-1.069-1.389-1.938-1.849-0.809-0.43-0.879-0.58-0.54-1.069 0.37-0.51 0.38-1.339 0.040-1.829-0.41-0.57-0.859-0.719-2.108-0.719h-1.099l-0.55-1.079c-1.189-2.308-2.428-3.797-3.887-4.646-1.689-0.979-4.616-1.689-8.463-2.068-1.459-0.15-6.195-0.2-7.644-0.1zM27.004 3.297c3.657 0.26 6.485 0.829 8.084 1.639 1.019 0.52 1.859 1.569 2.848 3.537 0.65 1.289 0.699 1.709 0.26 2.038-0.25 0.18-0.37 0.18-4.896 0.020-6.005-0.22-12.54-0.22-18.476 0-4.656 0.17-4.746 0.17-4.996-0.020-0.47-0.34-0.41-0.739 0.33-2.198 1.289-2.538 2.118-3.307 4.257-3.957 3.058-0.929 8.224-1.359 12.59-1.059zM7.299 14.848c1.569 0.45 2.988 1.039 3.587 1.499 0.34 0.26 0.44 0.63 0.21 0.819-0.22 0.18-2.348 0.35-4.427 0.36-1.939 0.010-2.008 0-2.488-0.24-0.759-0.38-0.909-0.65-0.909-1.649 0-0.959 0.1-1.129 0.719-1.259 0.659-0.14 1.729 0.010 3.307 0.47zM44.59 14.549c0.11 0.11 0.15 0.38 0.15 1.039-0.010 1.059-0.14 1.309-0.909 1.699-0.48 0.24-0.54 0.25-2.488 0.24-2.138-0.010-4.207-0.18-4.417-0.36-0.679-0.56 1.039-1.589 4.017-2.378 1.879-0.51 3.277-0.6 3.647-0.24zM28.203 21.024c4.067 0.56 6.175 1.199 6.755 2.058 0.44 0.65 0.22 1.329-0.62 1.879-0.869 0.58-0.699 0.57-10.432 0.57h-8.943l-0.6-0.24c-0.819-0.33-1.449-0.939-1.519-1.469-0.040-0.34-0.010-0.45 0.23-0.729 0.799-0.949 2.458-1.469 6.235-1.948 1.069-0.14 2.148-0.27 2.398-0.3 0.989-0.090 5.386 0.030 6.495 0.18z"></path>
</svg>
